<?xml version="1.0" encoding="UTF-8"?>
<svg version="1.1" xmlns="http://www.w3.org/2000/svg" width="512" height="512">
<path d="M0 0 C0.87542953 -0.00705963 1.75085907 -0.01411926 2.65281677 -0.02139282 C39.64453733 -0.25187338 39.64453733 -0.25187338 57.4609375 3.203125 C58.98581787 3.49316406 58.98581787 3.49316406 60.54150391 3.7890625 C112.48471993 13.99655423 156.35146806 39.22238615 194.4609375 75.203125 C195.13898438 75.83863281 195.81703125 76.47414063 196.515625 77.12890625 C201.64475691 82.08076402 206.02452684 87.63461593 210.4609375 93.203125 C211.35000108 94.30099132 212.23933156 95.39864153 213.12890625 96.49609375 C237.09005389 126.25724234 252.97854486 160.569201 262.1484375 197.578125 C262.43424683 198.7067395 262.43424683 198.7067395 262.72583008 199.8581543 C266.83434797 217.25524381 267.97373579 234.60223325 267.90698242 252.43041992 C267.89848783 255.87024235 267.92734687 259.30838738 267.95898438 262.74804688 C268.13191471 317.34344174 248.45660573 371.59023977 214.4609375 414.203125 C213.71585937 415.15960938 212.97078125 416.11609375 212.203125 417.1015625 C189.94767303 445.1056552 162.07891708 467.58395971 130.4609375 484.203125 C129.71199219 484.59999512 128.96304687 484.99686523 128.19140625 485.40576172 C105.77423222 497.12087278 81.33153365 504.81660028 56.4609375 509.203125 C55.62868652 509.36393555 54.79643555 509.52474609 53.93896484 509.69042969 C26.50295932 514.89334765 -5.16786371 514.60978155 -32.5390625 509.203125 C-33.57240723 509.00976562 -34.60575195 508.81640625 -35.67041016 508.6171875 C-69.31204996 502.21584186 -102.24545534 489.75804949 -130.5390625 470.203125 C-131.13138672 469.80174316 -131.72371094 469.40036133 -132.33398438 468.98681641 C-141.22228242 462.94727051 -149.47066276 456.29167606 -157.5390625 449.203125 C-158.41304688 448.44128906 -159.28703125 447.67945313 -160.1875 446.89453125 C-170.1808806 438.05180804 -179.32381921 428.72232274 -187.5390625 418.203125 C-188.26996094 417.28684326 -188.26996094 417.28684326 -189.015625 416.35205078 C-197.43209492 405.79777677 -204.8592567 394.9341889 -211.5390625 383.203125 C-211.9628418 382.46400879 -212.38662109 381.72489258 -212.82324219 380.96337891 C-234.18266545 343.29297408 -244.75076369 300.27918323 -244.7890625 257.078125 C-244.78973724 256.38436768 -244.79041199 255.69061035 -244.79110718 254.97583008 C-244.70154547 196.33718566 -224.59319399 139.65507138 -187.5390625 94.203125 C-187.09127441 93.65237305 -186.64348633 93.10162109 -186.18212891 92.53417969 C-175.22838203 79.17038006 -163.23656875 66.77145957 -149.5390625 56.203125 C-148.559375 55.41808594 -147.5796875 54.63304687 -146.5703125 53.82421875 C-105.78915377 21.34914715 -52.45964511 0.28404876 0 0 Z " fill="#2497F3" transform="translate(244.5390625,-0.203125)"/>
<path d="M0 0 C4.03029646 2.2419334 7.98903118 4.60066339 11.94140625 6.9765625 C17.73108344 10.45385307 23.58358149 13.8198437 29.4375 17.1875 C31.68621913 18.4830361 33.93491678 19.77860948 36.18359375 21.07421875 C37.31265137 21.72438965 38.44170898 22.37456055 39.60498047 23.04443359 C45.0716998 26.19332054 50.53574887 29.34683264 56 32.5 C58.16665311 33.7500235 60.33331979 35.00002347 62.5 36.25 C95 55 95 55 127.5 73.75 C128.5739502 74.3692334 129.64790039 74.9884668 130.75439453 75.62646484 C132.90765146 76.86943864 135.05968397 78.11453612 137.21044922 79.36181641 C142.23073355 82.26981972 147.25959857 85.15659552 152.33599854 87.96539307 C154.12027736 88.95399227 155.90049266 89.94955003 157.6796875 90.94726562 C159.90372079 92.1916652 162.13506429 93.42312984 164.375 94.63867188 C172.7296552 99.34215143 180.72669061 105.40236071 183.59375 114.984375 C185.2756371 123.32912252 183.53859624 130.75715683 179 138 C173.35329925 144.09524558 166.30991249 147.98871171 159.125 152 C157.38831793 152.98549816 155.65164386 153.97101075 153.91546631 154.95739746 C152.125208 155.97306426 150.3327933 156.98484023 148.54003906 157.99609375 C143.0036009 161.12388813 137.50401368 164.31562463 132 167.5 C129.83350157 168.75029156 127.66683443 170.00029084 125.5 171.25 C124.4275 171.86875 123.355 172.4875 122.25 173.125 C60.50000002 208.74999999 60.50000002 208.74999999 57.24829102 210.62597656 C55.08731012 211.87270256 52.92634002 213.11944727 50.76538086 214.36621094 C45.26181149 217.54145883 39.75803968 220.71635495 34.25390625 223.890625 C33.14378174 224.53104736 32.03365723 225.17146973 30.88989258 225.83129883 C28.69367031 227.09772416 26.49690378 228.36320617 24.29956055 229.62768555 C19.31445177 232.49850085 14.33907519 235.38278298 9.390625 238.31640625 C8.09596313 239.07969238 8.09596313 239.07969238 6.77514648 239.85839844 C5.19523666 240.79127669 3.61887895 241.73021251 2.04711914 242.67675781 C-5.61777156 247.18977206 -13.09973892 249.1736608 -22 248 C-29.87491021 245.46554614 -34.91223098 241.14270859 -39.11203575 234.14789391 C-43.38508313 225.21283504 -42.57657601 215.53961538 -42.54931641 205.86962891 C-42.55802048 203.82852943 -42.56839005 201.78743648 -42.58029175 199.74635315 C-42.60698861 194.2235143 -42.60823849 188.70094987 -42.60316515 183.1780591 C-42.6010201 178.55844099 -42.61080679 173.93887776 -42.62037599 169.31927145 C-42.6425375 158.41625608 -42.6434573 147.51337854 -42.63134766 136.61035156 C-42.61926839 125.38236216 -42.64389559 114.15487402 -42.68648779 102.92697012 C-42.72177377 93.26802978 -42.73371407 83.60924861 -42.72721231 73.95024621 C-42.72359492 68.18971068 -42.72877539 62.42953279 -42.75664139 56.66905594 C-42.78187751 51.24986059 -42.77783643 45.83144408 -42.75181961 40.41226006 C-42.74710611 38.43061873 -42.7524927 36.44892191 -42.76906586 34.46734428 C-42.862058 22.47846375 -42.65490852 12.4046575 -34.19553566 2.99224281 C-24.34598759 -6.38508706 -11.46658189 -6.05751843 0 0 Z " fill="#FEFEFE" transform="translate(213,134)"/>
</svg>
