<?xml version="1.0" standalone="no"?>
<!DOCTYPE svg PUBLIC "-//W3C//DTD SVG 20010904//EN"
 "http://www.w3.org/TR/2001/REC-SVG-20010904/DTD/svg10.dtd">
<svg version="1.0" xmlns="http://www.w3.org/2000/svg"
 width="512.000000pt" height="512.000000pt" viewBox="0 0 512.000000 512.000000"
 preserveAspectRatio="xMidYMid meet">

<g transform="translate(0.000000,512.000000) scale(0.100000,-0.100000)"
fill="#000000" stroke="none">
<path d="M3515 5024 c-248 -26 -497 -113 -687 -241 -490 -331 -724 -939 -582
-1512 54 -219 172 -446 302 -583 l35 -37 -76 -265 c-43 -145 -77 -274 -77
-286 0 -33 17 -57 49 -68 36 -13 52 -6 347 156 l220 120 115 -38 c164 -56 244
-70 419 -76 406 -15 760 123 1048 409 201 198 332 436 389 707 32 149 36 385
9 529 -55 303 -188 555 -405 771 -212 210 -446 335 -731 390 -96 19 -298 32
-375 24z m316 -170 c463 -80 845 -408 993 -854 89 -270 87 -583 -7 -830 -230
-609 -885 -951 -1506 -785 -51 14 -125 39 -165 55 -39 17 -83 30 -98 30 -17 0
-100 -39 -201 -94 -234 -127 -217 -119 -212 -104 33 93 113 402 108 415 -4 10
-30 45 -58 78 -161 187 -252 367 -302 598 -27 122 -24 390 4 512 106 454 425
801 864 940 174 55 399 70 580 39z"/>
<path d="M3535 4640 c-294 -45 -516 -301 -503 -580 4 -89 27 -133 93 -177 82
-55 187 -41 261 35 34 35 43 58 64 163 25 128 157 186 261 116 47 -32 73 -81
72 -138 -1 -61 -31 -113 -94 -164 -118 -94 -230 -271 -264 -416 -20 -85 -20
-238 0 -287 33 -77 104 -123 189 -123 61 0 91 10 135 46 48 41 67 89 74 184
10 126 35 173 165 300 91 89 115 119 149 188 23 45 47 108 53 139 18 84 8 245
-18 318 -97 267 -369 436 -637 396z m202 -168 c266 -83 393 -395 256 -632 -14
-25 -74 -92 -132 -150 -61 -60 -118 -127 -133 -156 -35 -65 -58 -154 -58 -223
0 -61 -18 -91 -56 -91 -79 0 -69 195 18 362 34 66 63 102 150 188 133 132 153
169 153 290 0 105 -22 159 -94 229 -70 68 -141 94 -242 89 -90 -5 -150 -31
-209 -91 -54 -54 -88 -122 -99 -199 -11 -83 -48 -111 -91 -68 -24 24 -25 65
-5 145 61 234 314 378 542 307z"/>
<path d="M3524 2956 c-148 -69 -179 -255 -59 -365 89 -82 211 -82 300 0 74 69
94 164 51 254 -28 60 -56 87 -116 114 -59 27 -114 26 -176 -3z m138 -153 c41
-37 10 -115 -47 -115 -56 0 -87 72 -48 114 20 22 70 23 95 1z"/>
<path d="M822 4557 c-22 -23 -22 -29 -22 -323 l0 -301 23 -21 c30 -28 80 -29
107 -2 19 19 20 33 20 325 0 292 -1 306 -20 325 -28 28 -81 26 -108 -3z"/>
<path d="M172 4117 c-13 -13 -22 -36 -22 -53 0 -37 11 -48 290 -283 232 -196
247 -204 295 -156 29 28 32 61 9 93 -9 13 -122 113 -252 223 -256 216 -273
226 -320 176z"/>
<path d="M1265 3626 c-141 -28 -264 -90 -365 -183 -168 -155 -250 -360 -237
-588 13 -216 117 -455 270 -621 l57 -62 0 -134 c0 -123 -2 -138 -25 -184 -34
-69 -83 -115 -168 -160 -167 -87 -425 -229 -463 -255 -61 -41 -145 -137 -182
-206 -46 -87 -72 -197 -72 -307 1 -329 192 -544 629 -711 401 -152 860 -160
1275 -24 131 43 326 135 423 199 184 122 293 341 280 564 -13 234 -130 410
-354 531 -219 118 -399 219 -441 247 -30 21 -52 48 -74 91 -29 58 -32 70 -36
195 l-5 134 61 61 c274 281 367 688 227 993 -42 92 -72 135 -143 208 -97 99
-209 166 -338 201 -84 22 -235 27 -319 11z m257 -157 c117 -25 245 -103 324
-200 59 -72 101 -163 121 -265 14 -73 15 -100 6 -175 -25 -191 -109 -364 -243
-500 -96 -97 -176 -143 -275 -158 -207 -31 -416 111 -546 374 -64 130 -90 233
-90 355 0 172 48 288 171 410 80 81 160 128 260 154 67 18 200 20 272 5z
m-250 -1444 c105 -25 244 -13 341 29 15 7 17 0 17 -75 0 -45 7 -112 16 -147
l16 -65 -136 -136 -136 -136 -141 141 -142 142 17 48 c10 27 20 93 23 146 l6
97 28 -14 c15 -8 56 -22 91 -30z m-132 -500 c68 -68 122 -126 120 -128 -16
-15 -201 -129 -204 -126 -84 109 -196 271 -192 278 3 5 30 23 59 39 29 16 59
37 66 46 7 9 16 16 20 16 3 0 62 -56 131 -125z m652 88 c19 -16 51 -37 71 -48
20 -11 37 -23 37 -28 0 -11 -178 -255 -192 -263 -7 -5 -150 84 -198 123 -5 4
232 243 241 243 3 0 22 -12 41 -27z m-951 -310 c67 -93 131 -178 142 -190 39
-43 73 -32 243 77 86 55 159 100 162 100 4 0 75 -47 157 -105 146 -102 176
-116 214 -95 10 5 78 91 151 190 73 99 135 180 138 180 3 0 70 -35 150 -77
170 -92 232 -146 285 -251 98 -197 54 -425 -111 -573 -56 -51 -226 -142 -359
-193 -434 -168 -942 -152 -1365 43 -119 55 -232 128 -286 185 -178 188 -170
505 16 677 37 34 108 81 192 126 74 40 138 73 142 73 3 0 61 -75 129 -167z"/>
</g>
</svg>
