<?xml version="1.0" standalone="no"?>
<!DOCTYPE svg PUBLIC "-//W3C//DTD SVG 20010904//EN"
 "http://www.w3.org/TR/2001/REC-SVG-20010904/DTD/svg10.dtd">
<svg version="1.0" xmlns="http://www.w3.org/2000/svg"
 width="512.000000pt" height="512.000000pt" viewBox="0 0 512.000000 512.000000"
 preserveAspectRatio="xMidYMid meet">

<g transform="translate(0.000000,512.000000) scale(0.100000,-0.100000)"
fill="#000000" stroke="none">
<path d="M3494 4864 c-59 -29 -81 -106 -48 -163 32 -54 39 -56 322 -61 l263
-5 -111 -130 c-795 -930 -1837 -1629 -3000 -2010 -177 -58 -205 -79 -205 -155
0 -42 5 -54 30 -80 52 -52 80 -50 286 20 1181 397 2249 1113 3044 2038 l80 93
5 -213 c6 -235 8 -245 69 -274 40 -19 94 -13 123 13 47 43 48 49 48 461 0 388
0 389 -23 423 -40 59 -36 59 -462 59 -327 0 -395 -3 -421 -16z"/>
<path d="M3489 3227 c-19 -13 -39 -38 -46 -57 -9 -26 -12 -361 -12 -1362 l-1
-1328 -195 0 -195 0 0 1056 0 1056 -34 34 -34 34 -412 0 -412 0 -34 -34 -34
-34 0 -1056 0 -1056 -195 0 -195 0 -1 743 c0 547 -3 751 -12 777 -7 19 -27 44
-46 57 -34 23 -34 23 -425 23 -427 0 -423 0 -463 -59 l-23 -34 0 -753 0 -753
-325 -3 -325 -3 -32 -33 c-28 -28 -33 -39 -33 -82 0 -43 5 -54 33 -82 l32 -33
2490 0 2490 0 32 33 c28 28 33 39 33 82 0 43 -5 54 -33 82 l-32 33 -325 3
-325 3 0 1338 0 1338 -23 34 c-40 59 -36 59 -463 59 -391 0 -391 0 -425 -23z
m671 -1482 l0 -1265 -245 0 -245 0 0 1265 0 1265 245 0 245 0 0 -1265z m-1360
-295 l0 -970 -240 0 -240 0 0 970 0 970 240 0 240 0 0 -970z m-1350 -290 l0
-680 -245 0 -245 0 0 680 0 680 245 0 245 0 0 -680z"/>
</g>
</svg>
