<?xml version="1.0" standalone="no"?>
<!DOCTYPE svg PUBLIC "-//W3C//DTD SVG 20010904//EN"
 "http://www.w3.org/TR/2001/REC-SVG-20010904/DTD/svg10.dtd">
<svg version="1.0" xmlns="http://www.w3.org/2000/svg"
 width="512.000000pt" height="512.000000pt" viewBox="0 0 512.000000 512.000000"
 preserveAspectRatio="xMidYMid meet">

<g transform="translate(0.000000,512.000000) scale(0.100000,-0.100000)"
fill="#000000" stroke="none">
<path d="M473 5100 c-205 -54 -361 -200 -431 -405 l-27 -80 0 -2055 0 -2055
27 -81 c64 -187 210 -333 398 -397 l65 -22 995 -3 c974 -2 996 -2 1027 17 64
40 88 112 58 175 -36 76 44 70 -1050 76 l-980 5 -58 23 c-70 28 -144 98 -177
167 l-25 50 -3 2027 -2 2027 21 58 c30 80 112 162 192 192 l58 21 1482 -2
1482 -3 55 -26 c66 -32 123 -86 158 -154 l27 -50 5 -807 c5 -796 5 -807 26
-835 67 -91 199 -75 239 30 14 38 16 122 13 832 l-3 790 -31 85 c-16 47 -47
111 -68 142 -54 83 -153 171 -238 212 -139 69 -55 66 -1688 65 -1409 0 -1478
-1 -1547 -19z"/>
<path d="M782 3900 c-84 -52 -79 -176 10 -230 32 -20 53 -20 1216 -20 1281 0
1225 -2 1269 54 33 41 38 90 14 139 -41 84 71 77 -1278 77 -1184 0 -1198 0
-1231 -20z"/>
<path d="M825 2846 c-16 -7 -41 -26 -55 -41 -21 -22 -25 -37 -25 -85 0 -48 4
-63 25 -85 51 -56 36 -55 740 -55 712 0 692 -2 743 59 56 67 26 172 -60 207
-47 20 -1323 20 -1368 0z"/>
<path d="M3941 2556 c-34 -19 -655 -606 -675 -638 -37 -60 -9 -160 53 -193 35
-18 103 -20 134 -3 12 6 106 92 210 191 l187 179 0 -638 c0 -615 1 -639 20
-679 25 -51 67 -77 127 -77 50 0 82 18 117 66 21 27 21 40 26 683 l5 656 178
-169 c98 -93 188 -174 200 -181 12 -7 43 -12 69 -13 99 0 169 112 123 199 -14
28 -585 580 -635 614 -29 20 -105 22 -139 3z"/>
<path d="M2953 744 c-18 -9 -42 -31 -53 -49 -19 -30 -20 -50 -20 -318 l0 -285
26 -32 c54 -64 -14 -60 1086 -60 960 0 1005 1 1038 19 70 37 75 56 78 333 4
271 -1 308 -48 353 -24 23 -41 30 -88 33 -52 4 -61 1 -91 -24 -54 -45 -61 -74
-61 -259 l0 -165 -830 0 -830 0 0 183 c0 164 -2 185 -20 215 -40 66 -119 89
-187 56z"/>
</g>
</svg>
